<?xml version="1.0" encoding="UTF-8"?>
<svg version="1.1" xmlns="http://www.w3.org/2000/svg" width="500" height="335">
<path d="M0 0 C165 0 330 0 500 0 C500 110.55 500 221.1 500 335 C335 335 170 335 0 335 C0 224.45 0 113.9 0 0 Z " fill="#FDFDFD" transform="translate(0,0)"/>
<path d="M0 0 C1.58300903 0.16749756 1.58300903 0.16749756 3.19799805 0.33837891 C6.44890539 0.69484981 9.69243107 1.0941195 12.9375 1.5 C13.93716797 1.6144043 14.93683594 1.72880859 15.96679688 1.84667969 C18.7316297 2.16498083 21.49068935 2.51218229 24.25 2.875 C25.08474854 2.97619141 25.91949707 3.07738281 26.77954102 3.18164062 C30.14106524 3.67396555 32.42771978 4.02380995 34.953125 6.3828125 C36.44883547 9.59977709 36.37408139 12.00734886 35.9375 15.5 C34.1875 17.9375 34.1875 17.9375 31.9375 19.5 C30.6175 19.5 29.2975 19.5 27.9375 19.5 C27.88142578 21.10488281 27.88142578 21.10488281 27.82421875 22.7421875 C27.41619641 32.71212469 26.58238903 42.5868188 25.4375 52.5 C25.24160278 54.20905518 25.24160278 54.20905518 25.04174805 55.95263672 C24.0708255 64.10002349 24.0708255 64.10002349 22.9375 67.5 C23.82695312 67.75652344 24.71640625 68.01304687 25.6328125 68.27734375 C37.63232123 72.7168783 47.43762999 85.320739 52.9375 96.5 C55.56518495 102.98945836 57.61319022 109.47328809 57.9375 116.5 C58.02386719 117.55316406 58.11023438 118.60632813 58.19921875 119.69140625 C58.96433153 135.72476969 53.25947968 150.7252269 42.87890625 162.91796875 C33.61159215 172.7799768 19.67001261 181.7003614 5.80615234 182.64526367 C-14.13840651 182.84364271 -30.94338582 180.50919398 -45.8828125 165.921875 C-49.67998823 161.70279085 -52.98523176 157.26618755 -56.0625 152.5 C-56.47242188 151.86835938 -56.88234375 151.23671875 -57.3046875 150.5859375 C-65.03725604 136.97901456 -65.77853029 119.98179643 -62.22265625 105.11328125 C-56.62399532 87.67637431 -45.0207194 75.1231634 -29.0625 66.5 C-20.11114865 62.5 -20.11114865 62.5 -15.0625 62.5 C-15.12244141 60.56253906 -15.12244141 60.56253906 -15.18359375 58.5859375 C-15.18234177 51.48222534 -14.2716156 44.47779888 -13.40844727 37.43896484 C-13.12313693 35.10979058 -12.8470241 32.77965907 -12.57226562 30.44921875 C-12.39376017 28.95826966 -12.21474223 27.46738182 -12.03515625 25.9765625 C-11.9116555 24.93902328 -11.9116555 24.93902328 -11.78565979 23.88052368 C-11.39205149 20.69197195 -10.94856135 17.59210292 -10.0625 14.5 C-10.990625 14.3453125 -10.990625 14.3453125 -11.9375 14.1875 C-14.0625 13.5 -14.0625 13.5 -16.0625 10.5 C-16.64871463 6.64773243 -16.41996714 5.03087673 -14.2265625 1.7734375 C-9.47967771 -1.63728712 -5.61866655 -0.69067106 0 0 Z " fill="#47A6A1" transform="translate(441.0625,110.5)"/>
<path d="M0 0 C0.66 0 1.32 0 2 0 C4.12253878 11.58585653 6.21774294 23.17596858 8.25390625 34.77734375 C8.53770645 36.39342026 8.53770645 36.39342026 8.82723999 38.04214478 C9.60208126 42.45700665 10.37620497 46.87199181 11.14819336 51.28735352 C13.29421678 63.55457225 15.45881302 75.80751138 18 88 C19.91273091 87.95884157 19.91273091 87.95884157 22 87 C23.76798926 84.34280896 23.76798926 84.34280896 25.234375 80.99609375 C25.51726379 80.39821548 25.80015259 79.80033722 26.09161377 79.18434143 C26.99135536 77.2747669 27.87076687 75.35659076 28.75 73.4375 C29.35675642 72.14065927 29.96481428 70.8444266 30.57421875 69.54882812 C32.06464064 66.37280017 33.53697219 63.18875572 35 60 C56.84975823 57.15826844 56.84975823 57.15826844 63.34472656 61.60546875 C67.78053928 66.3605513 70.52329493 72.04433663 73 78 C73.57210205 79.29248657 73.57210205 79.29248657 74.15576172 80.61108398 C76.1496744 85.27480452 77.52837844 89.16037862 77.375 94.3125 C77.36210937 95.27800781 77.34921875 96.24351562 77.3359375 97.23828125 C76.89234881 100.88499291 75.83451207 103.7899575 73.75 106.8125 C71.02229897 108.66343998 69.20769407 108.52370515 66 108 C61.73483845 103.97179187 60.13445051 99.36095094 59.8046875 93.5703125 C59.82789063 92.43335938 59.85109375 91.29640625 59.875 90.125 C59.89304688 88.97257812 59.91109375 87.82015625 59.9296875 86.6328125 C59.95289063 85.76398438 59.97609375 84.89515625 60 84 C58.71416016 84.2165625 58.71416016 84.2165625 57.40234375 84.4375 C56.25894531 84.623125 55.11554688 84.80875 53.9375 85 C52.81214844 85.185625 51.68679687 85.37125 50.52734375 85.5625 C46.9792885 86.00256887 43.57121813 86.07278916 40 86 C40.43594875 104.19131638 40.43594875 104.19131638 49.29296875 119.60546875 C52.25379359 122.02426616 55.47847027 123.56101763 59 125 C59.99 125.4125 60.98 125.825 62 126.25 C62.99 126.62125 62.99 126.62125 64 127 C64 127.33 64 127.66 64 128 C18.46 128 -27.08 128 -74 128 C-74 105.23 -74 82.46 -74 59 C-65.42 59 -56.84 59 -48 59 C-45.67713908 53.19284769 -43.44430497 47.59266948 -41.5 41.6875 C-41.2935083 41.06157959 -41.0870166 40.43565918 -40.87426758 39.79077148 C-38.82889947 33.55416538 -36.89666005 27.28334867 -35 21 C-31.64316476 22.67841762 -31.17602951 26.52229134 -29.99609375 29.90234375 C-29.71274673 30.69524307 -29.42939972 31.4881424 -29.13746643 32.30506897 C-28.23064277 34.84684102 -27.33380848 37.3920031 -26.4375 39.9375 C-25.53558127 42.47866022 -24.63165921 45.01909704 -23.7268219 47.55921936 C-23.1637443 49.14214404 -22.60276252 50.72581608 -22.04405212 52.31028748 C-20.68071496 56.22066489 -20.68071496 56.22066489 -19 60 C-16.97536745 60.65213292 -16.97536745 60.65213292 -15 61 C-14.91290771 60.42564209 -14.82581543 59.85128418 -14.73608398 59.25952148 C-13.14935929 49.6983951 -10.57030226 40.41287814 -8.0625 31.0625 C-7.17690522 27.74127882 -6.29354163 24.41946566 -5.41015625 21.09765625 C-5.19944489 20.30710846 -4.98873352 19.51656067 -4.77163696 18.70205688 C-3.11769329 12.48359736 -1.52922635 6.2503907 0 0 Z " fill="#FDFDFD" transform="translate(74,207)"/>
<path d="M0 0 C2.84155273 -0.38818359 2.84155273 -0.38818359 6.43359375 -0.3984375 C7.72201172 -0.40230469 9.01042969 -0.40617188 10.33789062 -0.41015625 C11.01053955 -0.40387207 11.68318848 -0.39758789 12.3762207 -0.39111328 C14.42662435 -0.37508502 16.47504916 -0.39094123 18.52539062 -0.41015625 C19.81509766 -0.40628906 21.10480469 -0.40242187 22.43359375 -0.3984375 C23.62009521 -0.39505371 24.80659668 -0.39166992 26.02905273 -0.38818359 C29 0 29 0 30.87841797 1.24682617 C32.2765159 3.43222914 32.42493478 4.86305645 32.51171875 7.44921875 C32.54716797 8.29677734 32.58261719 9.14433594 32.61914062 10.01757812 C32.64169922 10.89865234 32.66425781 11.77972656 32.6875 12.6875 C32.72166016 13.58017578 32.75582031 14.47285156 32.79101562 15.39257812 C32.87345648 17.59492671 32.94261551 19.79687938 33 22 C34.2271875 22.28617188 35.454375 22.57234375 36.71875 22.8671875 C39.86182829 23.65295707 42.6314673 24.58828605 45.5 26.125 C46.655 26.74375 47.81 27.3625 49 28 C45.43120211 33.40838443 41.79801861 38.74979781 38 44 C34.85354888 43.53954374 31.94462687 42.98182302 28.91796875 41.98828125 C16.54735651 38.41697902 2.23956693 40.03389935 -9 46 C-10.34964844 46.68642578 -10.34964844 46.68642578 -11.7265625 47.38671875 C-23.58297705 53.92386575 -31.53254829 64.26776262 -36 77 C-39.73411682 91.74858717 -38.89520576 106.92278004 -31.25 120.375 C-22.85422036 133.00007511 -11.31582138 142.40990386 3.8046875 145.58984375 C7.48333162 146.06204134 11.10982374 146.19146432 14.8125 146.1875 C15.51810059 146.18741943 16.22370117 146.18733887 16.95068359 146.18725586 C21.48118739 146.13777347 25.64838231 145.75615848 30.0078125 144.53515625 C32.62769593 143.83138364 35.3241467 143.44597555 38 143 C41.63 147.95 45.26 152.9 49 158 C45.80389448 161.19610552 44.03610832 161.87046085 39.8125 163.1875 C38.72582031 163.53167969 37.63914062 163.87585938 36.51953125 164.23046875 C35.68808594 164.48441406 34.85664063 164.73835937 34 165 C33.96036133 165.55985596 33.92072266 166.11971191 33.87988281 166.6965332 C33.68913933 169.23705728 33.46991264 171.77434156 33.25 174.3125 C33.1571875 175.63411133 33.1571875 175.63411133 33.0625 176.98242188 C32.98515625 177.82998047 32.9078125 178.67753906 32.828125 179.55078125 C32.7652832 180.33106689 32.70244141 181.11135254 32.63769531 181.9152832 C31.74942787 184.81915598 30.66218752 185.57858948 28 187 C25.11499023 187.38818359 25.11499023 187.38818359 21.80859375 187.3984375 C20.02098633 187.40423828 20.02098633 187.40423828 18.19726562 187.41015625 C16.95654297 187.39855469 15.71582031 187.38695312 14.4375 187.375 C12.57061523 187.39240234 12.57061523 187.39240234 10.66601562 187.41015625 C8.8803418 187.40435547 8.8803418 187.40435547 7.05859375 187.3984375 C5.96861084 187.39505371 4.87862793 187.39166992 3.75561523 187.38818359 C1 187 1 187 -0.83789062 185.61450195 C-3.65149231 181.70560533 -3.25922479 176.32327823 -3.5625 171.6875 C-3.64628906 170.43324219 -3.73007813 169.17898437 -3.81640625 167.88671875 C-3.87699219 166.93410156 -3.93757813 165.98148438 -4 165 C-4.6290625 164.82984375 -5.258125 164.6596875 -5.90625 164.484375 C-10.33037738 163.23176062 -14.34735318 161.92930342 -18.375 159.6875 C-21.66883393 157.65802105 -21.66883393 157.65802105 -23.921875 158.60546875 C-27.47165499 160.98755795 -30.34371992 164.09705083 -33.3671875 167.1015625 C-36.63022579 169.45443581 -38.04612819 169.46387411 -42 169 C-44.42529297 167.33520508 -44.42529297 167.33520508 -46.7421875 165.01953125 C-47.58007812 164.18486328 -48.41796875 163.35019531 -49.28125 162.49023438 C-50.1371875 161.60658203 -50.993125 160.72292969 -51.875 159.8125 C-52.75414063 158.94818359 -53.63328125 158.08386719 -54.5390625 157.19335938 C-60.89539675 150.75312941 -60.89539675 150.75312941 -61.36523438 147.37036133 C-60.83027736 143.89850464 -59.04082774 142.36703682 -56.625 139.875 C-54.15151289 137.29158013 -51.98732354 134.9809853 -50 132 C-50.2324368 130.00637712 -50.2324368 130.00637712 -51 128 C-51.21922119 127.36545898 -51.43844238 126.73091797 -51.66430664 126.07714844 C-52.0335022 125.10310059 -52.0335022 125.10310059 -52.41015625 124.109375 C-52.67763672 123.40039062 -52.94511719 122.69140625 -53.22070312 121.9609375 C-53.49849609 121.23132813 -53.77628906 120.50171875 -54.0625 119.75 C-54.34416016 119.00492187 -54.62582031 118.25984375 -54.91601562 117.4921875 C-55.6086913 115.66070607 -56.30407907 113.83025077 -57 112 C-57.84763916 111.92483154 -57.84763916 111.92483154 -58.71240234 111.84814453 C-61.26753853 111.61633728 -63.82117762 111.3708421 -66.375 111.125 C-67.26445313 111.04636719 -68.15390625 110.96773438 -69.0703125 110.88671875 C-70.34648438 110.76103516 -70.34648438 110.76103516 -71.6484375 110.6328125 C-72.43395996 110.55949707 -73.21948242 110.48618164 -74.02880859 110.41064453 C-76 110 -76 110 -78 108 C-78.39820611 103.72415127 -78.32904395 99.43390651 -78.31567383 95.14160156 C-78.31251177 93.00794515 -78.33597638 90.87567256 -78.36132812 88.7421875 C-78.36360088 87.39062675 -78.36430472 86.03906227 -78.36328125 84.6875 C-78.36626221 83.45386719 -78.36924316 82.22023438 -78.37231445 80.94921875 C-78.24945068 79.97597656 -78.12658691 79.00273438 -78 78 C-75.06419434 76.04279623 -74.10177164 75.69804825 -70.76953125 75.3671875 C-69.96708984 75.28339844 -69.16464844 75.19960937 -68.33789062 75.11328125 C-67.50451172 75.03464844 -66.67113281 74.95601563 -65.8125 74.875 C-64.96751953 74.78863281 -64.12253906 74.70226562 -63.25195312 74.61328125 C-61.16871077 74.4014261 -59.08443958 74.19973223 -57 74 C-56.2066145 71.95900065 -55.4153697 69.9171691 -54.625 67.875 C-54.18414062 66.73804687 -53.74328125 65.60109375 -53.2890625 64.4296875 C-52.86367187 63.29789063 -52.43828125 62.16609375 -52 61 C-51.52820313 59.98679688 -51.05640625 58.97359375 -50.5703125 57.9296875 C-49.64178816 54.87648514 -49.64178816 54.87648514 -51.703125 52.078125 C-52.96382812 50.67820312 -52.96382812 50.67820312 -54.25 49.25 C-55.08015625 48.30640625 -55.9103125 47.3628125 -56.765625 46.390625 C-58.15399663 44.90516445 -59.56226413 43.43773587 -61 42 C-61.38745117 39.68115234 -61.38745117 39.68115234 -61 37 C-58.20784906 33.1542438 -54.69541965 29.95407387 -51.3125 26.625 C-50.40048828 25.68527344 -49.48847656 24.74554687 -48.54882812 23.77734375 C-47.66259766 22.89433594 -46.77636719 22.01132812 -45.86328125 21.1015625 C-45.05157471 20.29025879 -44.23986816 19.47895508 -43.40356445 18.64306641 C-41 17 -41 17 -38.35229492 17.11669922 C-34.22771775 18.66550256 -31.58589878 21.92142495 -28.5 24.96875 C-25.73187737 27.21784964 -24.5487727 27.95316869 -21 28 C-18.34372349 27.11929425 -15.9152458 26.19618392 -13.375 25.0625 C-6.34007761 22 -6.34007761 22 -3 22 C-2.98018066 21.44014404 -2.96036133 20.88028809 -2.93994141 20.3034668 C-2.84462217 17.76434146 -2.73497247 15.22603112 -2.625 12.6875 C-2.5940625 11.80642578 -2.563125 10.92535156 -2.53125 10.01757812 C-2.49257812 9.17001953 -2.45390625 8.32246094 -2.4140625 7.44921875 C-2.36693115 6.27879028 -2.36693115 6.27879028 -2.31884766 5.0847168 C-2 3 -2 3 0 0 Z " fill="#47A5A0" transform="translate(147,0)"/>
<path d="M0 0 C8.25 0 16.5 0 25 0 C25 45.87 25 91.74 25 139 C18.73 139 12.46 139 6 139 C6 108.31 6 77.62 6 46 C5.34 46 4.68 46 4 46 C4.02449219 47.11246094 4.04898438 48.22492188 4.07421875 49.37109375 C4.06878706 54.33240082 3.48028125 59.15211374 2.8125 64.0625 C2.68157959 65.04782715 2.55065918 66.0331543 2.41577148 67.04833984 C1.09525308 76.74110938 -0.49067916 86.3889898 -2.08374023 96.04003906 C-3.83428059 106.69812178 -5.34304128 117.3787266 -6.74389648 128.08837891 C-6.89544189 129.23097168 -7.0469873 130.37356445 -7.203125 131.55078125 C-7.33364258 132.55794189 -7.46416016 133.56510254 -7.59863281 134.6027832 C-8 137 -8 137 -9 139 C-11.97 139 -14.94 139 -18 139 C-19.40575957 130.76494592 -20.67747083 122.51763909 -21.875 114.25 C-23.1680126 105.39722663 -24.55286891 96.56831278 -26.0625 87.75 C-27.43728946 79.66351804 -28.67139712 71.56900703 -29.75 63.4375 C-29.94154663 62.01872559 -29.94154663 62.01872559 -30.13696289 60.57128906 C-30.7678297 55.66799535 -31.13561795 50.9432741 -31 46 C-31.66 46 -32.32 46 -33 46 C-33 76.69 -33 107.38 -33 139 C-39.27 139 -45.54 139 -52 139 C-52 93.46 -52 47.92 -52 1 C-43.42 1 -34.84 1 -26 1 C-25.12083004 5.31167397 -24.24513438 9.62399814 -23.375 13.9375 C-23.24227692 14.59495209 -23.10955383 15.25240417 -22.97280884 15.92977905 C-21.33960821 24.04142789 -19.76757107 32.16119309 -18.30078125 40.3046875 C-18.09636414 41.43956352 -18.09636414 41.43956352 -17.88781738 42.59736633 C-17.22377431 46.2959996 -16.56710854 49.99583043 -15.91748047 53.69702148 C-15.67807709 55.04411113 -15.43865737 56.39119787 -15.19921875 57.73828125 C-14.99127686 58.92462158 -14.78333496 60.11096191 -14.5690918 61.33325195 C-14.27216397 63.90915598 -14.27216397 63.90915598 -13 65 C-12.09701848 60.24163572 -11.19482287 55.48312322 -10.29327393 50.7244873 C-9.97358446 49.03752371 -9.65372046 47.35059318 -9.3336792 45.66369629 C-7.68431885 36.96889685 -6.04040043 28.27349813 -4.45703125 19.56640625 C-4.22975342 18.32028564 -4.00247559 17.07416504 -3.76831055 15.7902832 C-3.34581813 13.46521204 -2.92660534 11.13954207 -2.51098633 8.81323242 C-2.32431396 7.78689697 -2.1376416 6.76056152 -1.9453125 5.703125 C-1.78562988 4.81270508 -1.62594727 3.92228516 -1.46142578 3.00488281 C-1 1 -1 1 0 0 Z " fill="#4AA6A2" transform="translate(340,193)"/>
<path d="M0 0 C1.32 0 2.64 0 4 0 C5.39101394 5.3529899 6.55054566 10.67469622 7.48046875 16.125 C7.68098091 17.27804123 7.68098091 17.27804123 7.88554382 18.45437622 C8.32224861 20.96912146 8.75487194 23.48455052 9.1875 26 C9.49269457 27.76160916 9.79820103 29.52316431 10.10400391 31.28466797 C10.74320176 34.96789628 11.38103744 38.65135693 12.01806641 42.33496094 C12.99842776 47.99799378 13.98810038 53.65937275 14.98046875 59.3203125 C15.14034775 60.23238464 15.30022675 61.14445679 15.46495056 62.08416748 C15.78075957 63.88538349 16.0966107 65.68659211 16.4125061 67.48779297 C17.14802991 71.68185598 17.88295021 75.87602408 18.6171875 80.0703125 C18.74292648 80.78736359 18.86866547 81.50441467 18.99821472 82.24319458 C19.68356152 86.15923585 20.35225124 90.07756388 21 94 C21.54269531 92.90300781 22.08539063 91.80601562 22.64453125 90.67578125 C23.3670797 89.22130061 24.08974196 87.7668765 24.8125 86.3125 C25.16892578 85.59126953 25.52535156 84.87003906 25.89257812 84.12695312 C26.24384766 83.42119141 26.59511719 82.71542969 26.95703125 81.98828125 C27.27647705 81.34415283 27.59592285 80.70002441 27.92504883 80.03637695 C28.27978271 79.36437256 28.6345166 78.69236816 29 78 C29.4228125 77.1028125 29.845625 76.205625 30.28125 75.28125 C32 73 32 73 34.54370117 72.43237305 C35.53345947 72.45855713 36.52321777 72.48474121 37.54296875 72.51171875 C38.61611328 72.52783203 39.68925781 72.54394531 40.79492188 72.56054688 C41.91447266 72.60244141 43.03402344 72.64433594 44.1875 72.6875 C45.31865234 72.71005859 46.44980469 72.73261719 47.61523438 72.75585938 C50.41147976 72.81485189 53.20508097 72.8971176 56 73 C55.39671875 71.99582031 54.7934375 70.99164063 54.171875 69.95703125 C45.49970786 55.25252419 40.04741134 40.93356446 43.6953125 23.71875 C46.29942776 15.75322096 50.30295876 10.28644701 57.5625 6.0625 C65.23705941 2.57721137 73.46180784 2.81817348 81.375 5.5 C88.69338499 8.92158259 92.61224545 14.23552196 95.4375 21.6875 C97.37211894 28.13348566 97.38755465 34.32544776 97 41 C83.3667426 43.29612756 83.3667426 43.29612756 77 43 C76.96132813 41.69675781 76.96132813 41.69675781 76.921875 40.3671875 C76.75004533 31.24781728 76.75004533 31.24781728 72 24 C68.33142278 23.49874717 68.33142278 23.49874717 65 24 C62.19501836 36.68134555 64.07559187 45.50902434 70.83691406 56.21679688 C73.32778566 60.03571504 75.92778197 63.77042763 78.56640625 67.48828125 C88.60990659 81.80348964 97.31954898 95.28364926 97.5625 113.1875 C97.57756592 114.10241211 97.59263184 115.01732422 97.6081543 115.95996094 C97.48382564 124.02460113 95.25119231 130.59105164 90.8125 137.3125 C83.89337514 143.9241082 78.41888015 145.4605032 68.9375 145.5625 C68.08663818 145.57716309 67.23577637 145.59182617 66.35913086 145.60693359 C59.36757293 145.49446159 54.30638008 143.61655978 48.828125 139.28125 C39.82795675 129.12264425 39.41148662 117.88190392 40 105 C42.39531756 104.66254646 44.79114268 104.3299171 47.1875 104 C47.86103516 103.90460938 48.53457031 103.80921875 49.22851562 103.7109375 C52.84664577 103.21675387 56.34796401 102.88653869 60 103 C60.03867187 104.25103516 60.03867187 104.25103516 60.078125 105.52734375 C60.58546118 116.59710047 60.58546118 116.59710047 66 126 C70.14732802 126.41521605 70.14732802 126.41521605 73.8125 124.75 C77.22775371 119.71699453 76.47678351 112.78641811 76 107 C75.22289828 103.31175566 73.73039769 100.33624233 72 97 C71.71946777 96.31583008 71.43893555 95.63166016 71.14990234 94.92675781 C68.77535897 89.19712003 66.2199782 83.61234744 61 80 C52.60375733 77.63826321 43.61066315 78.30723171 35 79 C34.773125 79.76828125 34.54625 80.5365625 34.3125 81.328125 C32.53560319 86.29920537 30.27818504 90.99184782 28 95.75 C27.54882812 96.70777344 27.09765625 97.66554688 26.6328125 98.65234375 C25.97925781 100.02326172 25.97925781 100.02326172 25.3125 101.421875 C24.91675781 102.25299805 24.52101563 103.08412109 24.11328125 103.94042969 C23 106 23 106 21 108 C18.875 107.625 18.875 107.625 17 107 C13.33712347 88.05896164 9.93244585 69.07954205 6.6875 50.0625 C6.51105957 49.03349579 6.33461914 48.00449158 6.15283203 46.94430542 C5.6444156 43.97509779 5.13987996 41.00525847 4.63671875 38.03515625 C4.41051094 36.71488937 4.41051094 36.71488937 4.17973328 35.36795044 C3.26419445 29.92339443 2.56402576 24.49241288 2 19 C1.34 19 0.68 19 0 19 C-0.09796875 20.04414063 -0.1959375 21.08828125 -0.296875 22.1640625 C-1.07423473 28.35304191 -2.70878196 34.34049172 -4.25 40.375 C-4.71925903 42.23161255 -4.71925903 42.23161255 -5.19799805 44.12573242 C-7.65591443 53.79202776 -10.2505366 63.41291975 -13 73 C-13.37903605 74.32678584 -13.75794744 75.6536073 -14.13671875 76.98046875 C-14.56404297 78.47513672 -14.56404297 78.47513672 -15 80 C-17.35742187 79.8034668 -17.35742187 79.8034668 -20 79 C-21.31445312 76.90551758 -21.31445312 76.90551758 -22.28125 74.14453125 C-22.64613525 73.13519531 -23.01102051 72.12585938 -23.38696289 71.0859375 C-23.93791626 69.46558594 -23.93791626 69.46558594 -24.5 67.8125 C-24.88728271 66.72582031 -25.27456543 65.63914062 -25.67358398 64.51953125 C-26.79941052 61.35203939 -27.90015483 58.17658429 -29 55 C-29.79743645 52.76691693 -30.6030778 50.53698211 -31.41015625 48.30737305 C-32.28753514 45.87652129 -33.14550016 43.43897442 -34 41 C-37.31520095 48.12768205 -39.38699862 55.60513076 -41.63476562 63.12304688 C-42.29233692 65.31301144 -42.95821194 67.50032657 -43.625 69.6875 C-43.83108887 70.38286865 -44.03717773 71.0782373 -44.24951172 71.79467773 C-45.77332152 76.77332152 -45.77332152 76.77332152 -48 79 C-50.52197266 79.22705078 -50.52197266 79.22705078 -53.6640625 79.1953125 C-54.78554688 79.18886719 -55.90703125 79.18242187 -57.0625 79.17578125 C-58.238125 79.15902344 -59.41375 79.14226562 -60.625 79.125 C-61.80835938 79.11597656 -62.99171875 79.10695313 -64.2109375 79.09765625 C-67.14082523 79.07402812 -70.0703134 79.04108514 -73 79 C-73.38218767 77.34385343 -73.71395102 75.67542976 -74 74 C-73 73 -73 73 -70.86694336 72.88647461 C-69.49227905 72.89432983 -69.49227905 72.89432983 -68.08984375 72.90234375 C-67.10048828 72.90556641 -66.11113281 72.90878906 -65.09179688 72.91210938 C-64.05087891 72.92048828 -63.00996094 72.92886719 -61.9375 72.9375 C-60.37032227 72.94426758 -60.37032227 72.94426758 -58.77148438 72.95117188 C-56.1809334 72.96300087 -53.59049441 72.97948311 -51 73 C-50.84217041 72.32662598 -50.68434082 71.65325195 -50.52172852 70.95947266 C-48.53006397 62.71291978 -46.1435977 54.62528517 -43.61108398 46.53271484 C-42.92830721 44.34555241 -42.25601523 42.15532868 -41.58398438 39.96484375 C-41.14906574 38.56751264 -40.7135419 37.17036972 -40.27734375 35.7734375 C-39.88796631 34.51966309 -39.49858887 33.26588867 -39.09741211 31.97412109 C-38 29 -38 29 -36 27 C-34.01367188 27.06494141 -34.01367188 27.06494141 -32 28 C-30.78320312 30.14208984 -30.78320312 30.14208984 -29.78125 32.9609375 C-29.40613281 33.99089844 -29.03101563 35.02085937 -28.64453125 36.08203125 C-28.26683594 37.16871094 -27.88914063 38.25539062 -27.5 39.375 C-27.12230469 40.42300781 -26.74460938 41.47101563 -26.35546875 42.55078125 C-25.5987987 44.654376 -24.850066 46.76084308 -24.109375 48.87011719 C-22.69918211 52.84869836 -21.21303505 56.79768092 -19.71679688 60.74462891 C-19 63 -19 63 -19 66 C-18.34 66 -17.68 66 -17 66 C-16.87850586 64.86425537 -16.75701172 63.72851074 -16.63183594 62.55834961 C-16.05481741 57.96381755 -15.02778455 53.55048966 -13.890625 49.06640625 C-13.68193787 48.23020248 -13.47325073 47.39399872 -13.25823975 46.53245544 C-12.81668607 44.76789264 -12.37281956 43.00390713 -11.92675781 41.24047852 C-11.26012689 38.60257281 -10.60213166 35.96262925 -9.9453125 33.32226562 C-7.84570525 24.93356612 -5.65603774 16.57937277 -3.234375 8.27734375 C-3.02460022 7.55422501 -2.81482544 6.83110626 -2.59869385 6.08607483 C-1.12513226 1.12513226 -1.12513226 1.12513226 0 0 Z " fill="#4AA7A2" transform="translate(74,188)"/>
<path d="M0 0 C4 4.75 4 4.75 4 7 C7.2516169 8.67649313 10.56786908 10.13901153 13.9375 11.5625 C14.95714844 11.99691406 15.97679687 12.43132812 17.02734375 12.87890625 C34.56438901 19.49274592 54.00789797 13.85679151 70.5234375 7.23828125 C74.63312973 5.77449199 78.75756708 4.6893494 83 3.6875 C83.71849121 3.51605469 84.43698242 3.34460938 85.17724609 3.16796875 C88.84311483 2.33893836 92.23979694 1.80170804 96 2 C96.64836042 3.74906531 97.29358784 5.49929219 97.9375 7.25 C98.47697266 8.71179688 98.47697266 8.71179688 99.02734375 10.203125 C103.64991847 23.49534788 101.1153633 37.39219412 95.5 49.9375 C87.90293613 64.29371628 75.81109013 73.52003658 60.39648438 78.41772461 C56.20961982 79.43500985 52.10533577 79.5309694 47.8125 79.5 C46.89629883 79.49500488 45.98009766 79.49000977 45.03613281 79.48486328 C33.22919228 79.18440586 23.31025653 75.30746879 14 68 C13.31421875 67.48824219 12.6284375 66.97648437 11.921875 66.44921875 C1.31348548 57.96655614 -5.251247 44.35411382 -7 31 C-7.84478129 21.48582385 -6.82665543 9.69888542 -1.36328125 1.5625 C-0.91339844 1.046875 -0.46351563 0.53125 0 0 Z " fill="#4FC6C2" transform="translate(391,208)"/>
<path d="M0 0 C7.59 0 15.18 0 23 0 C23 13.2 23 26.4 23 40 C33.23 40 43.46 40 54 40 C54 26.8 54 13.6 54 0 C61.59 0 69.18 0 77 0 C77 32.67 77 65.34 77 99 C69.41 99 61.82 99 54 99 C54 86.13 54 73.26 54 60 C43.77 60 33.54 60 23 60 C23 72.87 23 85.74 23 99 C15.41 99 7.82 99 0 99 C0 66.33 0 33.66 0 0 Z " fill="#4AA7A2" transform="translate(200,43)"/>
<path d="M0 0 C15.51 0 31.02 0 47 0 C47 6.93 47 13.86 47 21 C38.42 21 29.84 21 21 21 C21 32.88 21 44.76 21 57 C27.27 57 33.54 57 40 57 C40 64.26 40 71.52 40 79 C33.73 79 27.46 79 21 79 C21 91.54 21 104.08 21 117 C29.58 117 38.16 117 47 117 C47 123.93 47 130.86 47 138 C31.49 138 15.98 138 0 138 C0 92.46 0 46.92 0 0 Z " fill="#4AA6A2" transform="translate(234,194)"/>
<path d="M0 0 C1.0023497 2.33267522 1.16213512 3.49784656 0.37915039 5.92285156 C0.03875732 6.5722168 -0.30163574 7.22158203 -0.65234375 7.890625 C-1.01650391 8.59960938 -1.38066406 9.30859375 -1.75585938 10.0390625 C-2.14580078 10.76867187 -2.53574219 11.49828125 -2.9375 12.25 C-3.32357422 12.99507812 -3.70964844 13.74015625 -4.10742188 14.5078125 C-5.06090166 16.34414394 -6.02905677 18.17284207 -7 20 C-10.15775111 19.43728657 -12.92108435 18.66533241 -15.875 17.4375 C-25.67823069 14.15888208 -36.13468596 14.95869922 -45.40234375 19.38671875 C-51.10437265 22.9279788 -55.52691758 28.07347671 -57.55859375 34.5390625 C-59.06849282 42.95708389 -59.53110078 51.76252928 -54.6015625 59.07421875 C-48.1829445 66.79221551 -41.11220074 70.9894192 -31.0859375 72.4140625 C-23.86156243 72.77623434 -18.21339775 70.941035 -11.6171875 68.09375 C-9 67 -9 67 -7 67 C-4.03 73.27 -1.06 79.54 2 86 C-13.97860779 94.37713418 -29.28972928 98.32639136 -47.234375 93.03125 C-60.7198392 88.00277182 -73.41499321 78.00365117 -79.50390625 64.71875 C-84.40851259 52.31051515 -86.62014112 39.22688637 -81.26171875 26.5546875 C-73.86890504 11.58595634 -64.16260026 1.57723942 -48.5625 -5 C-33.27124711 -10.02354146 -13.73417289 -8.55146614 0 0 Z " fill="#48A6A1" transform="translate(367,49)"/>
<path d="M0 0 C19.14 0 38.28 0 58 0 C58 6.6 58 13.2 58 20 C51.73 20 45.46 20 39 20 C39 58.94 39 97.88 39 138 C32.4 138 25.8 138 19 138 C19 99.06 19 60.12 19 20 C12.73 20 6.46 20 0 20 C0 13.4 0 6.8 0 0 Z " fill="#46A5A0" transform="translate(172,194)"/>
<path d="M0 0 C7.26 0 14.52 0 22 0 C22 32.34 22 64.68 22 98 C14.74 98 7.48 98 0 98 C0 65.66 0 33.32 0 0 Z " fill="#46A5A0" transform="translate(374,44)"/>
<path d="M0 0 C3.375 1.0625 3.375 1.0625 5.3125 2.75 C6.7363395 5.8489448 6.92653827 7.68432812 6.375 11.0625 C4.3125 14 4.3125 14 1.375 16.0625 C-2.47710127 16.12891554 -4.62348005 15.93479157 -7.5625 13.375 C-8.9863395 10.2760552 -9.17653827 8.44067188 -8.625 5.0625 C-5.92665364 1.21940065 -4.75860157 0.08204485 0 0 Z " fill="#4FC5C1" transform="translate(457.625,193.9375)"/>
<path d="M0 0 C0.99 0 1.98 0 3 0 C2.40211877 10.0695786 1.33682757 20.00624051 0 30 C-0.99 30.33 -1.98 30.66 -3 31 C-2.69006494 27.33311187 -2.37658349 23.66653494 -2.0625 20 C-1.97548828 18.97003906 -1.88847656 17.94007813 -1.79882812 16.87890625 C-1.31334981 11.23297326 -0.74940134 5.61713439 0 0 Z " fill="#4DBFBB" transform="translate(462,135)"/>
<path d="M0 0 C3.0625 0.1875 3.0625 0.1875 5.0625 2.1875 C4.50694444 6.74305556 4.50694444 6.74305556 3.0625 8.1875 C1.06291636 8.22830783 -0.93795254 8.23004356 -2.9375 8.1875 C-3.31813221 5.8614143 -3.65019945 3.52694736 -3.9375 1.1875 C-2.9375 0.1875 -2.9375 0.1875 0 0 Z " fill="#4FC5C1" transform="translate(426.9375,186.8125)"/>
</svg>
