<?xml version="1.0" encoding="UTF-8"?>
<svg version="1.1" xmlns="http://www.w3.org/2000/svg" width="500" height="500">
<path d="M0 0 C165 0 330 0 500 0 C500 165 500 330 500 500 C335 500 170 500 0 500 C0 335 0 170 0 0 Z " fill="#FDFEFE" transform="translate(0,0)"/>
<path d="M0 0 C1.30066406 0.12890625 2.60132813 0.2578125 3.94140625 0.390625 C5.06506592 0.51920898 5.06506592 0.51920898 6.21142578 0.65039062 C9.27192209 0.98821151 12.33612711 1.26578695 15.40234375 1.546875 C17.74761283 1.77906855 20.09266584 2.01345473 22.4375 2.25 C23.57598389 2.35513916 24.71446777 2.46027832 25.88745117 2.56860352 C36.32934729 3.70685655 36.32934729 3.70685655 39.8125 7.9375 C40.72960304 10.69959857 40.54831926 13.13218909 39.8125 15.9375 C37.4375 18.4375 37.4375 18.4375 34.8125 19.9375 C34.1525 19.9375 33.4925 19.9375 32.8125 19.9375 C32.70292969 20.93523437 32.59335937 21.93296875 32.48046875 22.9609375 C32.03996773 26.95863839 31.5941491 30.95573206 31.14648438 34.95263672 C30.90999736 37.06615302 30.67440975 39.17977005 30.43945312 41.29345703 C30.04636002 44.82102766 29.64859896 48.34804766 29.25 51.875 C29.12326904 53.0182373 28.99653809 54.16147461 28.8659668 55.33935547 C28.68287964 56.94834717 28.68287964 56.94834717 28.49609375 58.58984375 C28.38837646 59.54882568 28.28065918 60.50780762 28.16967773 61.49584961 C27.8125 63.9375 27.8125 63.9375 26.8125 66.9375 C27.54726563 67.21207031 28.28203125 67.48664063 29.0390625 67.76953125 C43.84957985 74.00663644 52.68306662 87.00422818 58.8125 101.33984375 C64.46910416 116.03375691 62.67787894 131.62654796 56.8125 145.9375 C49.36066524 161.26553368 38.47578711 171.31310585 22.8125 177.9375 C22.00941406 178.27910156 21.20632813 178.62070312 20.37890625 178.97265625 C7.49370931 183.405164 -9.96368731 182.83673789 -22.1875 176.9375 C-23.09113281 176.53660156 -23.99476563 176.13570312 -24.92578125 175.72265625 C-40.43489082 168.15456176 -49.79455185 155.41111255 -56.2421875 139.76171875 C-60.17556743 128.01033987 -60.20551136 111.06205944 -55.515625 99.6015625 C-47.1440148 82.80909733 -36.33625325 70.38914335 -18.1875 63.9375 C-15.79635844 63.38026005 -13.64452642 63.10130176 -11.1875 62.9375 C-11.13924072 62.36604248 -11.09098145 61.79458496 -11.04125977 61.20581055 C-10.20977655 51.70559571 -9.15894444 42.22979088 -8.125 32.75 C-7.93676128 31.01758765 -7.74860956 29.28516584 -7.56054688 27.55273438 C-7.10386712 23.34754661 -6.64601165 19.1424884 -6.1875 14.9375 C-6.826875 14.628125 -7.46625 14.31875 -8.125 14 C-10.1875 12.9375 -10.1875 12.9375 -11.1875 11.9375 C-11.75131487 6.20538219 -11.75131487 6.20538219 -11.1875 3.9375 C-7.53801224 0.06784204 -5.20265518 -0.53063423 0 0 Z " fill="#47A6A1" transform="translate(432.1875,170.0625)"/>
<path d="M0 0 C1.04752441 0.00326294 1.04752441 0.00326294 2.11621094 0.0065918 C4.24986735 0.00975385 6.38213994 -0.01371075 8.515625 -0.0390625 C9.86718575 -0.04133526 11.21875023 -0.0420391 12.5703125 -0.04101562 C14.42076172 -0.04548706 14.42076172 -0.04548706 16.30859375 -0.05004883 C17.28183594 0.07281494 18.25507813 0.19567871 19.2578125 0.32226562 C21.2334687 3.28574992 21.52158109 4.00246935 21.671875 7.33398438 C21.71054688 8.09130859 21.74921875 8.84863281 21.7890625 9.62890625 C21.82 10.41458984 21.8509375 11.20027344 21.8828125 12.00976562 C21.92148438 12.80705078 21.96015625 13.60433594 22 14.42578125 C22.09413744 16.39090037 22.17705882 18.35655103 22.2578125 20.32226562 C26.8778125 22.30226563 31.4978125 24.28226563 36.2578125 26.32226562 C36.2578125 31.30820609 34.25336713 33.38854304 31.2578125 37.07226562 C30.78085938 37.67425781 30.30390625 38.27625 29.8125 38.89648438 C28.63620711 40.37861341 27.44812857 41.85137505 26.2578125 43.32226562 C25.64679688 43.10570312 25.03578125 42.88914063 24.40625 42.66601562 C12.05110559 38.90726747 -4.47468996 37.58381228 -16.4375 43.06835938 C-17.57832031 43.68904297 -17.57832031 43.68904297 -18.7421875 44.32226562 C-20.00675781 44.95841797 -20.00675781 44.95841797 -21.296875 45.60742188 C-33.53712218 52.28561144 -42.18538318 63.06950504 -46.6796875 76.25976562 C-49.74714085 89.55206346 -49.26803223 104.2453226 -42.7421875 116.32226562 C-42.22269531 117.29550781 -41.70320313 118.26875 -41.16796875 119.27148438 C-33.87831153 131.72677281 -22.14028995 140.08321655 -8.1796875 143.75976562 C1.3156479 145.33939628 10.16569884 144.47317259 19.3828125 141.88085938 C22.60844089 141.25414082 24.20418508 141.0891633 27.2578125 142.32226562 C29.23478547 144.44354319 30.88815518 146.42966623 32.5703125 148.75976562 C33.02470703 149.35853516 33.47910156 149.95730469 33.94726562 150.57421875 C37.2578125 155.01981027 37.2578125 155.01981027 37.2578125 157.32226562 C32.3078125 159.30226562 27.3578125 161.28226563 22.2578125 163.32226562 C22.22042969 164.58683594 22.18304688 165.85140625 22.14453125 167.15429688 C22.07887417 168.81448292 22.01242674 170.47463785 21.9453125 172.13476562 C21.92275391 172.96814453 21.90019531 173.80152344 21.87695312 174.66015625 C21.8237793 175.86381836 21.8237793 175.86381836 21.76953125 177.09179688 C21.74334717 177.83018799 21.71716309 178.5685791 21.69018555 179.3293457 C21.11762164 181.96844181 20.50897692 182.8142722 18.2578125 184.32226562 C15.28686523 184.69458008 15.28686523 184.69458008 11.69140625 184.68554688 C10.40169922 184.68490234 9.11199219 184.68425781 7.78320312 184.68359375 C7.11264893 184.67529541 6.44209473 184.66699707 5.7512207 184.65844727 C3.69898362 184.63480791 1.64804217 184.63789415 -0.40429688 184.64453125 C-10.47534032 184.5891128 -10.47534032 184.5891128 -12.7421875 182.32226562 C-13.06103516 180.25927734 -13.06103516 180.25927734 -13.15625 177.75195312 C-13.19492188 176.85605469 -13.23359375 175.96015625 -13.2734375 175.03710938 C-13.304375 174.09996094 -13.3353125 173.1628125 -13.3671875 172.19726562 C-13.40585938 171.25238281 -13.44453125 170.3075 -13.484375 169.33398438 C-13.57880096 166.99694187 -13.66437144 164.65991062 -13.7421875 162.32226562 C-14.42780762 162.20955322 -15.11342773 162.09684082 -15.81982422 161.98071289 C-21.11147285 161.08846051 -25.34785567 159.80225692 -29.953125 157.02929688 C-32.3914235 156.06568983 -33.33305451 156.28719723 -35.7421875 157.32226562 C-38.3550884 159.53154768 -40.7598016 161.90052237 -43.20703125 164.29101562 C-45.89384853 166.44378139 -47.31410071 167.24991964 -50.7421875 167.32226562 C-52.55859375 166.31054688 -52.55859375 166.31054688 -54.3046875 164.63476562 C-54.975 163.99152344 -55.6453125 163.34828125 -56.3359375 162.68554688 C-57.13 161.90566406 -57.9240625 161.12578125 -58.7421875 160.32226562 C-59.81293701 159.3550174 -60.88600293 158.39032947 -61.9609375 157.42773438 C-63.07694051 156.39410883 -64.19152522 155.35894986 -65.3046875 154.32226562 C-65.85390869 153.83669189 -66.40312988 153.35111816 -66.96899414 152.85083008 C-69.78187631 150.15037325 -70.72272566 148.7586974 -70.8984375 144.81835938 C-69.52459469 140.66434143 -67.72396203 138.50611039 -64.6796875 135.38476562 C-63.97102539 134.64516602 -63.97102539 134.64516602 -63.24804688 133.890625 C-62.0925391 132.68843004 -60.91913202 131.50348218 -59.7421875 130.32226562 C-61.5194134 124.84110164 -63.60267216 119.50785938 -65.71875 114.15039062 C-66.7421875 111.32226562 -66.7421875 111.32226562 -66.7421875 109.32226562 C-68.00675781 109.34546875 -69.27132812 109.36867188 -70.57421875 109.39257812 C-72.2343691 109.41133689 -73.89452583 109.42953697 -75.5546875 109.44726562 C-76.38806641 109.46402344 -77.22144531 109.48078125 -78.08007812 109.49804688 C-78.88251953 109.50449219 -79.68496094 109.5109375 -80.51171875 109.51757812 C-81.61930542 109.53328857 -81.61930542 109.53328857 -82.74926758 109.54931641 C-84.7421875 109.32226562 -84.7421875 109.32226562 -87.7421875 107.32226562 C-88.11450195 104.37304688 -88.11450195 104.37304688 -88.10546875 100.63476562 C-88.10596725 99.97645752 -88.10646576 99.31814941 -88.10697937 98.63989258 C-88.10463854 97.24785341 -88.0949093 95.85581005 -88.07836914 94.46386719 C-88.05477684 92.33034513 -88.0578071 90.19807244 -88.06445312 88.06445312 C-88.02128061 77.60135874 -88.02128061 77.60135874 -85.7421875 75.32226562 C-81.64976468 74.14984179 -77.6636306 74.22019606 -73.4296875 74.25976562 C-72.17542969 74.26878906 -70.92117187 74.2778125 -69.62890625 74.28710938 C-68.67628906 74.29871094 -67.72367188 74.3103125 -66.7421875 74.32226562 C-66.5153125 73.06414062 -66.2884375 71.80601562 -66.0546875 70.50976562 C-64.79457296 64.73347417 -62.33117433 59.60893721 -59.7421875 54.32226562 C-60.53625 53.4534375 -61.3303125 52.58460937 -62.1484375 51.68945312 C-63.18046341 50.52607847 -64.21167081 49.36197736 -65.2421875 48.19726562 C-66.02916016 47.34261719 -66.02916016 47.34261719 -66.83203125 46.47070312 C-67.32832031 45.90351562 -67.82460937 45.33632812 -68.3359375 44.75195312 C-68.79677734 44.23874512 -69.25761719 43.72553711 -69.73242188 43.19677734 C-71.23501337 40.40739208 -71.13175117 38.44076001 -70.7421875 35.32226562 C-69.18505859 32.98876953 -69.18505859 32.98876953 -67.015625 30.79882812 C-66.23058594 30.00605469 -65.44554688 29.21328125 -64.63671875 28.39648438 C-63.80527344 27.58824219 -62.97382812 26.78 -62.1171875 25.94726562 C-61.30894531 25.11582031 -60.50070313 24.284375 -59.66796875 23.42773438 C-58.87519531 22.64269531 -58.08242187 21.85765625 -57.265625 21.04882812 C-56.181604 19.9749585 -56.181604 19.9749585 -55.07568359 18.87939453 C-52.06190432 16.86831646 -50.30099573 16.85696508 -46.7421875 17.32226562 C-44.86767578 18.33203125 -44.86767578 18.33203125 -43.3125 19.72851562 C-42.7453125 20.22480469 -42.178125 20.72109375 -41.59375 21.23242188 C-41.02398437 21.75707031 -40.45421875 22.28171875 -39.8671875 22.82226562 C-39.27421875 23.34691406 -38.68125 23.8715625 -38.0703125 24.41210938 C-36.61584668 25.70236131 -35.17736378 27.01059116 -33.7421875 28.32226562 C-33.05253906 27.98453125 -32.36289063 27.64679688 -31.65234375 27.29882812 C-30.71261719 26.8528125 -29.77289063 26.40679687 -28.8046875 25.94726562 C-27.88816406 25.50640625 -26.97164062 25.06554687 -26.02734375 24.61132812 C-22.00393149 23.03258134 -17.97351966 22.15429228 -13.7421875 21.32226562 C-13.72236816 20.75717285 -13.70254883 20.19208008 -13.68212891 19.60986328 C-13.58700514 17.05518566 -13.47727692 14.50134022 -13.3671875 11.94726562 C-13.33625 11.0578125 -13.3053125 10.16835937 -13.2734375 9.25195312 C-13.23476562 8.40117188 -13.19609375 7.55039063 -13.15625 6.67382812 C-13.10911865 5.49554443 -13.10911865 5.49554443 -13.06103516 4.29345703 C-12.07160525 -1.823432 -4.75170739 0.01960635 0 0 Z " fill="#47A5A0" transform="translate(156.7421875,61.677734375)"/>
<path d="M0 0 C8.25 0 16.5 0 25 0 C26.06644162 5.24922848 27.12973096 10.49902339 28.1875 15.75 C28.34551086 16.53389099 28.50352173 17.31778198 28.6663208 18.12542725 C31.1148012 30.2988054 33.40373583 42.48812358 35.48901367 54.72949219 C35.67568604 55.81133789 35.8623584 56.89318359 36.0546875 58.0078125 C36.29421143 59.42537842 36.29421143 59.42537842 36.53857422 60.87158203 C36.79327517 62.97368792 36.79327517 62.97368792 38 64 C38.15033691 63.19820313 38.30067383 62.39640625 38.45556641 61.5703125 C42.30371094 41.046875 46.15185547 20.5234375 50 0 C58.25 0 66.5 0 75 0 C75 45.21 75 90.42 75 137 C69.06 137 63.12 137 57 137 C57 106.64 57 76.28 57 45 C56.34 45 55.68 45 55 45 C54.94811523 45.854729 54.89623047 46.70945801 54.84277344 47.59008789 C54.29741738 55.93186789 53.4275985 64.16286127 52.25 72.4375 C52.07807129 73.66597656 51.90614258 74.89445312 51.72900391 76.16015625 C49.86163819 89.30641086 47.72364331 102.40669666 45.56542969 115.5078125 C44.82843126 120.05963699 44.1353864 124.61763408 43.45166016 129.17773438 C43.03173019 131.80172917 42.54068677 134.39850378 42 137 C39.03 137 36.06 137 33 137 C31.32347856 126.5725447 29.71785869 116.13748069 28.1875 105.6875 C25.56929382 88.10811567 22.77196769 70.5557954 20 53 C19.67 80.72 19.34 108.44 19 137 C12.73 137 6.46 137 0 137 C0 91.79 0 46.58 0 0 Z " fill="#48A5A1" transform="translate(286,253)"/>
<path d="M0 0 C2.125 0.375 2.125 0.375 4 1 C5.69522443 6.49686129 6.77180341 11.95611248 7.69921875 17.62890625 C7.85518021 18.56044525 8.01114166 19.49198425 8.17182922 20.45175171 C8.50650451 22.45112319 8.83956093 24.45076621 9.17114258 26.45065308 C10.04572482 31.72135503 10.93387701 36.98975257 11.82421875 42.2578125 C12.00419403 43.32283493 12.18416931 44.38785736 12.36959839 45.4851532 C14.15279744 55.98662963 16.05443228 66.4650283 18 76.9375 C18.15342865 77.76371857 18.3068573 78.58993713 18.4649353 79.44119263 C19.30538048 83.96165798 20.15039535 88.48124575 21 93 C21.29769287 92.39937744 21.59538574 91.79875488 21.90209961 91.17993164 C23.24516208 88.47308771 24.59128848 85.76777908 25.9375 83.0625 C26.40607422 82.11697266 26.87464844 81.17144531 27.35742188 80.19726562 C27.80537109 79.29814453 28.25332031 78.39902344 28.71484375 77.47265625 C29.12855225 76.64000244 29.54226074 75.80734863 29.96850586 74.94946289 C31 73 31 73 32 72 C33.63256758 71.84285346 35.27135338 71.74914586 36.91015625 71.68359375 C37.89951172 71.64169922 38.88886719 71.59980469 39.90820312 71.55664062 C40.94912109 71.51732422 41.99003906 71.47800781 43.0625 71.4375 C44.10728516 71.39431641 45.15207031 71.35113281 46.22851562 71.30664062 C48.81886884 71.20018775 51.40932186 71.0981724 54 71 C53.20335938 69.60201172 53.20335938 69.60201172 52.390625 68.17578125 C44.68084586 54.38853915 39.24033248 41.01452669 42.66015625 24.88671875 C45.12742228 17.16449649 49.53142391 10.87537271 56.4375 6.5 C63.20577115 3.53308662 72.48508604 3.90047757 79.56640625 5.625 C85.54155465 8.24424313 90.35133632 13.43091489 93.06640625 19.30859375 C95.58601891 26.52661456 96.15181269 33.4093657 96 41 C89.25846717 42.25841946 82.86515862 43.26404456 76 43 C75.89042969 41.96359375 75.78085938 40.9271875 75.66796875 39.859375 C75.50846361 38.48950736 75.34827116 37.11971963 75.1875 35.75 C75.11724609 35.06808594 75.04699219 34.38617188 74.97460938 33.68359375 C74.48877664 29.68033205 73.94474197 26.85770526 71 24 C68.45741537 23.49985047 68.45741537 23.49985047 66 24 C62.77995763 27.22004237 62.81002299 30.70127513 62.6875 35.125 C62.65011719 35.99382812 62.61273438 36.86265625 62.57421875 37.7578125 C63.94995855 48.23362931 70.45735231 56.67224109 76.25 65.1875 C81.298724 72.6282964 86.20868133 80.06966839 90.484375 87.98828125 C90.97517548 88.887425 90.97517548 88.887425 91.47589111 89.80473328 C97.18921435 100.66123937 97.71152013 113.61817712 95.27734375 125.5390625 C92.65712239 133.24060382 88.46654959 139.25003999 81.125 143.08203125 C76.72081239 144.37576136 72.50976092 144.51331349 67.9375 144.5625 C67.08663818 144.57716309 66.23577637 144.59182617 65.35913086 144.60693359 C57.81725568 144.48560873 52.08660357 142.34314905 46.75 136.9375 C39.23162891 127.41149848 38.85694181 115.58771374 39 104 C48.9 103.505 48.9 103.505 59 103 C59.75 110.625 59.75 110.625 59.95605469 112.99072266 C60.50534361 117.88585625 61.74541874 121.13180084 65 125 C68.04308291 125.75015195 68.04308291 125.75015195 71 125 C73.03667615 123.45493534 73.86073078 122.27853844 75 120 C76.49459851 105.20536669 71.44438591 95.93388177 62.89672852 84.18701172 C60 80.19430768 60 80.19430768 60 78 C47.625 78.495 47.625 78.495 35 79 C34.10796875 80.93746094 33.2159375 82.87492187 32.296875 84.87109375 C31.42321242 86.74261262 30.54462603 88.61174248 29.66552734 90.48071289 C29.0571443 91.78103025 28.45391087 93.08376991 27.85595703 94.38891602 C26.9955312 96.26458724 26.11696235 98.13076786 25.234375 99.99609375 C24.71069336 101.12200928 24.18701172 102.2479248 23.64746094 103.40795898 C22 106 22 106 19.92285156 107.00024414 C18 107 18 107 16 105 C15.42485341 102.37913147 14.95912903 99.81228118 14.5546875 97.1640625 C14.42370163 96.35306091 14.29271576 95.54205933 14.15776062 94.70648193 C13.87299935 92.94049763 13.59173144 91.17394735 13.31350708 89.40692139 C12.56674614 84.66941471 11.79302128 79.93632962 11.01953125 75.203125 C10.85861496 74.21569305 10.69769867 73.22826111 10.53190613 72.21090698 C8.67770024 60.90780964 6.6289821 49.6409008 4.5625 38.375 C4.38338074 37.3968634 4.20426147 36.41872681 4.01971436 35.41094971 C3.01742196 29.93983918 2.01083898 24.46953769 1 19 C-1.50977934 27.32009041 -3.69874922 35.69078899 -5.7265625 44.140625 C-5.9624408 45.12204468 -6.19831909 46.10346436 -6.44134521 47.11462402 C-7.42229454 51.2059308 -8.39955553 55.29807403 -9.36914062 59.39208984 C-10.08618169 62.41397332 -10.81197088 65.43364656 -11.5390625 68.453125 C-11.75680328 69.38320374 -11.97454407 70.31328247 -12.19888306 71.27154541 C-12.4060495 72.1271405 -12.61321594 72.9827356 -12.82666016 73.86425781 C-13.00556793 74.61700989 -13.18447571 75.36976196 -13.36880493 76.14532471 C-14 78 -14 78 -16 80 C-18.02203369 79.83566284 -18.02203369 79.83566284 -20 79 C-21.29249286 76.35563775 -22.28975542 73.90127007 -23.234375 71.1328125 C-23.51726379 70.34228485 -23.80015259 69.5517572 -24.09161377 68.73727417 C-24.68724404 67.0636707 -25.27516387 65.38730618 -25.85595703 63.70849609 C-26.74588383 61.1368944 -27.65775744 58.57396927 -28.57421875 56.01171875 C-29.14973719 54.38587615 -29.72399836 52.75958783 -30.296875 51.1328125 C-30.70459137 49.97955978 -30.70459137 49.97955978 -31.12054443 48.80300903 C-32.17317845 45.75057609 -33 43.25281306 -33 40 C-33.66 40 -34.32 40 -35 40 C-35.23589844 41.1859375 -35.47179688 42.371875 -35.71484375 43.59375 C-37.07479275 49.70932684 -39.00546083 55.6330381 -40.94116211 61.58691406 C-41.56976467 63.52236778 -42.19053987 65.4602152 -42.81054688 67.3984375 C-45.86893784 76.86893784 -45.86893784 76.86893784 -47 78 C-48.85369611 78.08737645 -50.71067541 78.10698153 -52.56640625 78.09765625 C-53.69111328 78.09443359 -54.81582031 78.09121094 -55.97460938 78.08789062 C-57.15861328 78.07951172 -58.34261719 78.07113281 -59.5625 78.0625 C-60.75037109 78.05798828 -61.93824219 78.05347656 -63.16210938 78.04882812 C-66.10812226 78.03699675 -69.05403681 78.02051287 -72 78 C-72.66 76.68 -73.32 75.36 -74 74 C-72 72 -72 72 -69.75341797 71.77294922 C-68.84221191 71.78342285 -67.93100586 71.79389648 -66.9921875 71.8046875 C-65.51298828 71.81435547 -65.51298828 71.81435547 -64.00390625 71.82421875 C-62.45509766 71.84935547 -62.45509766 71.84935547 -60.875 71.875 C-59.31458984 71.88853516 -59.31458984 71.88853516 -57.72265625 71.90234375 C-55.14820908 71.92596253 -52.57421788 71.95889851 -50 72 C-49.80470703 70.41058594 -49.80470703 70.41058594 -49.60546875 68.7890625 C-49.10464659 65.65488513 -48.4943382 63.27723557 -47.3125 60.375 C-44.82138961 53.85629141 -43.01262447 47.16789838 -41.19458008 40.43701172 C-39.87097893 35.64122704 -38.42363985 31.35104483 -36 27 C-34.140625 27.2109375 -34.140625 27.2109375 -32 28 C-30.796875 29.9140625 -30.796875 29.9140625 -29.75 32.625 C-29.33878906 33.6871875 -28.92757812 34.749375 -28.50390625 35.84375 C-27.99867923 37.22774016 -27.49794194 38.6133721 -27 40 C-26.6685498 40.92039062 -26.33709961 41.84078125 -25.99560547 42.7890625 C-24.16109805 47.91486795 -22.35182036 53.04948882 -20.57421875 58.1953125 C-20.27088623 59.07203613 -19.96755371 59.94875977 -19.6550293 60.85205078 C-19 63 -19 63 -19 65 C-18.34 65 -17.68 65 -17 65 C-16.84917969 63.38158203 -16.84917969 63.38158203 -16.6953125 61.73046875 C-15.98830387 56.10765624 -14.40719793 50.75700111 -12.875 45.3125 C-10.81639991 37.87372512 -8.82735841 30.42895096 -7.05078125 22.91796875 C-6.89351563 22.25420731 -6.73625 21.59044586 -6.57421875 20.90657043 C-5.80851929 17.66315636 -5.05411827 14.41767034 -4.31005859 11.16918945 C-4.03629395 9.99960693 -3.7625293 8.83002441 -3.48046875 7.625 C-3.24223389 6.58601562 -3.00399902 5.54703125 -2.75854492 4.4765625 C-2 2 -2 2 0 0 Z " fill="#4AA7A2" transform="translate(74,247)"/>
<path d="M0 0 C0.66 0.99 1.32 1.98 2 3 C7.10372137 10.33659947 14.15724829 13.57647245 22.77563477 15.60742188 C26.86139078 16.32851678 30.92207314 16.38262018 35.0625 16.375 C36.4386145 16.37258301 36.4386145 16.37258301 37.8425293 16.37011719 C47.39585445 16.20007283 56.24212842 14.57479945 64.75 10.03125 C69.52860062 7.57456873 74.46919033 6.42273673 79.6875 5.25 C80.61111328 5.02957031 81.53472656 4.80914062 82.48632812 4.58203125 C86.76691642 3.58969905 90.58633027 2.88048658 95 3 C98.33455733 10.75429746 99.68590861 17.44998932 99.5625 25.875 C99.54823975 27.45099976 99.54823975 27.45099976 99.53369141 29.05883789 C99.31315558 37.2983368 98.10221532 43.73973003 94 51 C93.33097656 52.21623047 93.33097656 52.21623047 92.6484375 53.45703125 C91.23038102 55.78216856 89.70377112 57.87617471 88 60 C87.39929688 60.74894531 86.79859375 61.49789062 86.1796875 62.26953125 C78.98310254 70.30070116 66.02364698 78.08110188 55.04125977 79.19946289 C52.81431755 79.30475867 50.60434829 79.32901544 48.375 79.3125 C47.57956787 79.30686035 46.78413574 79.3012207 45.96459961 79.29541016 C30.43756357 78.97817932 18.61143011 73.25194518 7.44140625 62.55859375 C-3.54548854 51.04432801 -6.70928554 37.94425537 -6.60473633 22.43066406 C-6.35234695 15.06553862 -5.53393418 5.53393418 0 0 Z " fill="#4FC6C2" transform="translate(387,266)"/>
<path d="M0 0 C7.26 0 14.52 0 22 0 C22 12.54 22 25.08 22 38 C32.23 38 42.46 38 53 38 C53 25.46 53 12.92 53 0 C60.26 0 67.52 0 75 0 C75 32.01 75 64.02 75 97 C67.74 97 60.48 97 53 97 C53 84.13 53 71.26 53 58 C42.77 58 32.54 58 22 58 C22 70.87 22 83.74 22 97 C14.74 97 7.48 97 0 97 C0 64.99 0 32.98 0 0 Z " fill="#47A5A0" transform="translate(199,105)"/>
<path d="M0 0 C15.51 0 31.02 0 47 0 C47 6.93 47 13.86 47 21 C38.42 21 29.84 21 21 21 C21 32.88 21 44.76 21 57 C26.94 57 32.88 57 39 57 C39 64.26 39 71.52 39 79 C33.06 79 27.12 79 21 79 C21 91.21 21 103.42 21 116 C29.58 116 38.16 116 47 116 C47 122.93 47 129.86 47 137 C31.49 137 15.98 137 0 137 C0 91.79 0 46.58 0 0 Z " fill="#4BA7A2" transform="translate(232,253)"/>
<path d="M0 0 C-0.61262631 2.82080379 -1.47154809 5.13808856 -2.84765625 7.671875 C-3.38422852 8.66767578 -3.38422852 8.66767578 -3.93164062 9.68359375 C-4.30482422 10.36550781 -4.67800781 11.04742187 -5.0625 11.75 C-5.43955078 12.44738281 -5.81660156 13.14476563 -6.20507812 13.86328125 C-7.13273388 15.57768302 -8.06583454 17.28913661 -9 19 C-10.60433809 18.52140759 -12.20846416 18.04210442 -13.8125 17.5625 C-14.70582031 17.29566406 -15.59914063 17.02882812 -16.51953125 16.75390625 C-18.35473055 16.19612127 -20.18033726 15.60655425 -22 15 C-32.6040475 14.02929345 -41.00466545 14.62302574 -50 21 C-55.81695361 25.96117912 -58.48958042 31.73103624 -59.38671875 39.234375 C-59.81126277 47.87620448 -58.37819698 54.13421662 -53 61 C-50.5383237 63.47180666 -48.03765608 65.29566624 -45 67 C-44.11054688 67.50660156 -44.11054688 67.50660156 -43.203125 68.0234375 C-35.61967473 71.55589938 -25.75766613 71.18813137 -17.9375 68.625 C-16.61559495 68.10670851 -15.30278732 67.56462751 -14 67 C-12.33398789 66.33169927 -10.66746268 65.66467317 -9 65 C-7.43218535 67.7358678 -5.90062368 70.49041599 -4.375 73.25 C-3.92898438 74.02730469 -3.48296875 74.80460937 -3.0234375 75.60546875 C-2.6109375 76.35957031 -2.1984375 77.11367187 -1.7734375 77.890625 C-1.38591309 78.58188477 -0.99838867 79.27314453 -0.59912109 79.98535156 C0 82 0 82 -0.75073242 84.16845703 C-4.2208053 89.25590803 -12.49410766 91.09573715 -18.25 92.3125 C-34.00198994 94.64945714 -48.63838182 92.99904006 -62 84 C-72.84519936 75.52473567 -79.64360663 66.06918011 -84 53 C-85.36428605 35.91541781 -83.22428844 22.88431808 -71.89453125 9.515625 C-53.93265328 -9.43177193 -22.4396421 -14.9597614 0 0 Z " fill="#48A6A1" transform="translate(365,111)"/>
<path d="M0 0 C19.14 0 38.28 0 58 0 C58 6.93 58 13.86 58 21 C51.73 21 45.46 21 39 21 C39 59.28 39 97.56 39 137 C32.4 137 25.8 137 19 137 C19 98.72 19 60.44 19 21 C12.73 21 6.46 21 0 21 C0 14.07 0 7.14 0 0 Z " fill="#47A5A0" transform="translate(170,253)"/>
<path d="M0 0 C7.26 0 14.52 0 22 0 C22 32.01 22 64.02 22 97 C14.74 97 7.48 97 0 97 C0 64.99 0 32.98 0 0 Z " fill="#46A5A0" transform="translate(370,105)"/>
<path d="M0 0 C4.99268902 1.47931526 4.99268902 1.47931526 6.375 4 C6.76774738 7.09288558 7.01077985 9.04689172 6.375 12 C3.9566209 14.76386182 2.40842666 15.79835577 -1.1875 16.5 C-4.54368055 15.81155271 -5.63057936 14.77794303 -7.625 12 C-8.6875 8.5625 -8.6875 8.5625 -8.625 5 C-5.99586945 1.05630417 -4.7922916 0 0 0 Z " fill="#4FC5C1" transform="translate(452.625,253)"/>
<path d="M0 0 C0.66 0 1.32 0 2 0 C1.2527012 10.02953658 0.1433327 20.00971429 -1 30 C-1.66 30 -2.32 30 -3 30 C-3.20339534 23.59304682 -2.81105658 17.4171384 -2.0625 11.0625 C-1.97564941 10.31685791 -1.88879883 9.57121582 -1.79931641 8.80297852 C-1.42085419 5.73295735 -0.98086293 2.94258878 0 0 Z " fill="#4EC1BD" transform="translate(458,195)"/>
<path d="M0 0 C1.4540625 0.0309375 1.4540625 0.0309375 2.9375 0.0625 C3.31813221 2.3885857 3.65019945 4.72305264 3.9375 7.0625 C2.9375 8.0625 2.9375 8.0625 -0.0625 8.1875 C-3.0625 8.0625 -3.0625 8.0625 -4.0625 7.0625 C-4.1875 4.0625 -4.1875 4.0625 -4.0625 1.0625 C-3.0625 0.0625 -3.0625 0.0625 0 0 Z " fill="#4FC5C1" transform="translate(423.0625,245.9375)"/>
</svg>
