<?xml version="1.0" encoding="UTF-8"?>
<svg version="1.1" xmlns="http://www.w3.org/2000/svg" width="500" height="500">
<path d="M0 0 C165 0 330 0 500 0 C500 165 500 330 500 500 C335 500 170 500 0 500 C0 335 0 170 0 0 Z " fill="#FEFEFE" transform="translate(0,0)"/>
<path d="M0 0 C0.73460449 0.04600342 1.46920898 0.09200684 2.22607422 0.1394043 C3.04076172 0.18645508 3.85544922 0.23350586 4.69482422 0.28198242 C5.54818359 0.34192383 6.40154297 0.40186523 7.28076172 0.46362305 C8.52599609 0.53613281 8.52599609 0.53613281 9.79638672 0.61010742 C24.10782113 1.49616018 24.10782113 1.49616018 27.15576172 3.40112305 C28.52631899 5.79959827 28.50395339 7.43522804 28.15576172 10.15112305 C27.49576172 10.81112305 26.83576172 11.47112305 26.15576172 12.15112305 C25.16576172 12.15112305 24.17576172 12.15112305 23.15576172 12.15112305 C23.16736328 12.74973145 23.17896484 13.34833984 23.19091797 13.96508789 C23.25963402 20.30291675 22.84607112 26.47938185 22.15576172 32.77612305 C22.01267578 34.13930664 22.01267578 34.13930664 21.86669922 35.5300293 C21.63432404 37.73759347 21.39729683 39.94454565 21.15576172 42.15112305 C22.02587891 42.67899414 22.02587891 42.67899414 22.91357422 43.2175293 C32.86435545 49.5065544 38.27237223 56.81184262 41.77685547 68.1628418 C43.60159252 77.73800841 41.77244183 87.10265169 36.78076172 95.40112305 C35.92215476 96.66243946 35.04794034 97.91332568 34.15576172 99.15112305 C33.43388672 100.18237305 32.71201172 101.21362305 31.96826172 102.27612305 C27.37573305 107.61220398 19.10931274 112.55189376 12.08105469 113.40209961 C0.89385609 114.13606477 -8.40479828 113.83615232 -17.84423828 107.15112305 C-18.59962891 106.64452148 -19.35501953 106.13791992 -20.13330078 105.6159668 C-28.01173211 99.61124479 -32.29402527 89.76244372 -33.84423828 80.15112305 C-34.82100402 69.42445929 -32.16153798 61.01000608 -25.73095703 52.40893555 C-20.16751643 45.75123645 -13.38271691 41.06328788 -4.84423828 39.15112305 C-3.22974935 32.17590387 -2.51822191 25.2197455 -2.09423828 18.08862305 C-2.0376001 17.24323975 -1.98096191 16.39785645 -1.92260742 15.52685547 C-1.81234268 13.40431295 -1.8191121 11.27637921 -1.84423828 9.15112305 C-2.50423828 8.49112305 -3.16423828 7.83112305 -3.84423828 7.15112305 C-4.09423828 4.65112305 -4.09423828 4.65112305 -3.84423828 2.15112305 C-1.84423828 0.15112305 -1.84423828 0.15112305 0 0 Z " fill="#48A6A1" transform="translate(353.84423828125,188.848876953125)"/>
<path d="M0 0 C0.86931152 0.01047363 1.73862305 0.02094727 2.63427734 0.03173828 C3.57529297 0.03818359 4.51630859 0.04462891 5.48583984 0.05126953 C6.47068359 0.06802734 7.45552734 0.08478516 8.47021484 0.10205078 C9.46279297 0.11107422 10.45537109 0.12009766 11.47802734 0.12939453 C13.93399618 0.15300962 16.38948653 0.18594279 18.84521484 0.22705078 C20.49134554 5.57373513 21.03908128 9.70185726 20.84521484 15.22705078 C24.14521484 16.21705078 27.44521484 17.20705078 30.84521484 18.22705078 C30.84521484 22.03050956 29.70735153 23.00406094 27.34521484 25.91455078 C26.69552734 26.72279297 26.04583984 27.53103516 25.37646484 28.36376953 C24.61849609 29.28609375 24.61849609 29.28609375 23.84521484 30.22705078 C23.31154297 30.08267578 22.77787109 29.93830078 22.22802734 29.78955078 C10.21636031 26.79702474 -1.35359343 27.8624613 -12.40478516 33.72705078 C-19.33965987 38.21629335 -25.2561855 45.93379568 -27.75244141 53.87939453 C-29.85443756 66.14444004 -27.80903845 76.52327694 -21.40478516 87.03955078 C-16.36412893 94.13709948 -9.23805008 98.79335168 -0.76806641 100.78955078 C7.60379483 102.19111798 15.619172 100.93635839 23.84521484 99.22705078 C26.48521484 102.52705078 29.12521484 105.82705078 31.84521484 109.22705078 C28.07973815 112.99252747 25.94347899 113.14053547 20.84521484 114.22705078 C20.78462891 115.22607422 20.72404297 116.22509766 20.66162109 117.25439453 C20.5359375 119.18992188 20.5359375 119.18992188 20.40771484 121.16455078 C20.28589844 123.09621094 20.28589844 123.09621094 20.16162109 125.06689453 C19.84521484 128.22705078 19.84521484 128.22705078 18.84521484 129.22705078 C15.37312677 129.47804002 11.88780864 129.41227174 8.40771484 129.41455078 C7.42738281 129.42679688 6.44705078 129.43904297 5.43701172 129.45166016 C4.50050781 129.45359375 3.56400391 129.45552734 2.59912109 129.45751953 C1.30470093 129.46368286 1.30470093 129.46368286 -0.01586914 129.4699707 C-2.15478516 129.22705078 -2.15478516 129.22705078 -4.15478516 127.22705078 C-4.35009766 124.18798828 -4.35009766 124.18798828 -4.27978516 120.60205078 C-4.26173828 119.41353516 -4.24369141 118.22501953 -4.22509766 117.00048828 C-4.20189453 116.08525391 -4.17869141 115.17001953 -4.15478516 114.22705078 C-5.08033203 114.09556641 -6.00587891 113.96408203 -6.95947266 113.82861328 C-10.15478516 113.22705078 -10.15478516 113.22705078 -13.27978516 111.60205078 C-15.92414944 110.02611675 -15.92414944 110.02611675 -18.11962891 110.44580078 C-21.17075146 111.61705704 -23.00310616 113.75877077 -25.27587891 116.04736328 C-27.15478516 117.22705078 -27.15478516 117.22705078 -29.47900391 117.26220703 C-33.2909607 115.78750842 -35.67424212 113.40541506 -38.52978516 110.53955078 C-39.08794922 110.02199219 -39.64611328 109.50443359 -40.22119141 108.97119141 C-42.89323407 106.32224047 -44.14555387 104.90429169 -44.19775391 101.07470703 C-43.1520085 98.21946958 -42.1601224 96.55187763 -40.09228516 94.35205078 C-39.27050781 93.45873047 -39.27050781 93.45873047 -38.43212891 92.54736328 C-38.01060547 92.11166016 -37.58908203 91.67595703 -37.15478516 91.22705078 C-37.44353516 90.46779297 -37.73228516 89.70853516 -38.02978516 88.92626953 C-38.58666016 87.43546875 -38.58666016 87.43546875 -39.15478516 85.91455078 C-39.71166016 84.43535156 -39.71166016 84.43535156 -40.27978516 82.92626953 C-41.15478516 80.22705078 -41.15478516 80.22705078 -41.15478516 77.22705078 C-42.15380859 77.16646484 -43.15283203 77.10587891 -44.18212891 77.04345703 C-46.11765625 76.91777344 -46.11765625 76.91777344 -48.09228516 76.78955078 C-50.02394531 76.66773438 -50.02394531 76.66773438 -51.99462891 76.54345703 C-55.15478516 76.22705078 -55.15478516 76.22705078 -56.15478516 75.22705078 C-56.24164119 73.66532333 -56.26180735 72.09975734 -56.25244141 70.53564453 C-56.24921875 69.59140625 -56.24599609 68.64716797 -56.24267578 67.67431641 C-56.23429687 66.68109375 -56.22591797 65.68787109 -56.21728516 64.66455078 C-56.21277344 63.66746094 -56.20826172 62.67037109 -56.20361328 61.64306641 C-56.19178522 59.1710023 -56.17530365 56.6990556 -56.15478516 54.22705078 C-52.39536879 52.84314969 -49.28951235 51.9805439 -45.27978516 52.10205078 C-44.10802734 52.12912109 -44.10802734 52.12912109 -42.91259766 52.15673828 C-42.04248047 52.19154297 -42.04248047 52.19154297 -41.15478516 52.22705078 C-41.05166016 51.17517578 -40.94853516 50.12330078 -40.84228516 49.03955078 C-40.15478516 45.22705078 -40.15478516 45.22705078 -38.52978516 42.53955078 C-36.93792775 40.39422285 -36.93792775 40.39422285 -37.37744141 38.29736328 C-38.52627294 35.2376612 -40.61253112 33.40284253 -42.87744141 31.10595703 C-44.15478516 29.22705078 -44.15478516 29.22705078 -44.69384766 26.89892578 C-43.88410471 22.88541726 -41.31198758 20.65920505 -38.46728516 17.91455078 C-37.67161133 17.08987305 -37.67161133 17.08987305 -36.85986328 16.24853516 C-34.52211143 13.93946737 -32.7636414 12.36035067 -29.51416016 11.64892578 C-26.51963036 12.38268474 -25.2437013 13.60391729 -23.09228516 15.78955078 C-21.21384393 17.80611102 -21.21384393 17.80611102 -19.15478516 19.22705078 C-16.29866777 18.9629012 -14.3163252 17.8527383 -11.65478516 16.66455078 C-8.15478516 15.22705078 -8.15478516 15.22705078 -4.15478516 15.22705078 C-4.17798828 14.31181641 -4.20119141 13.39658203 -4.22509766 12.45361328 C-4.24314453 11.26509766 -4.26119141 10.07658203 -4.27978516 8.85205078 C-4.30298828 7.66869141 -4.32619141 6.48533203 -4.35009766 5.26611328 C-4.12326745 1.73663527 -3.67450835 0.38718477 0 0 Z " fill="#48A6A1" transform="translate(166.15478515625,106.77294921875)"/>
<path d="M0 0 C0.99 0.33 1.98 0.66 3 1 C3.82177734 3.41088867 3.82177734 3.41088867 4.4609375 6.73046875 C4.70811523 8.00067871 4.95529297 9.27088867 5.20996094 10.57958984 C5.47643312 12.05249781 5.73958915 13.52600832 6 15 C6.14199829 15.80294495 6.28399658 16.60588989 6.43029785 17.4331665 C7.69779888 24.67347536 8.89936478 31.92465115 10.09863281 39.17651367 C10.55462029 41.92683566 11.01537082 44.67632796 11.4765625 47.42578125 C11.61510651 48.27352615 11.75365051 49.12127106 11.89639282 49.9947052 C12.2335689 53.81368367 12.2335689 53.81368367 14 57 C15.98 53.04 17.96 49.08 20 45 C25.94 45 31.88 45 38 45 C37.030625 43.081875 36.06125 41.16375 35.0625 39.1875 C30.88056068 30.91259878 28.97917328 21.75439364 31.71875 12.59765625 C34.2803736 7.87724502 37.94806349 4.68397884 43 3 C49.09037433 2.15911991 53.28494856 3.03308167 58.3359375 6.5546875 C60.49576024 8.43058988 61.814625 10.40699218 63 13 C63.33 10.03 63.66 7.06 64 4 C76.21 4 88.42 4 101 4 C101 8.29 101 12.58 101 17 C97.04 17 93.08 17 89 17 C89 41.09 89 65.18 89 90 C84.71 90 80.42 90 76 90 C76 65.91 76 41.82 76 17 C72.04 17 68.08 17 64 17 C64 19.97 64 22.94 64 26 C60.04 26.33 56.08 26.66 52 27 C51.01 22.05 51.01 22.05 50 17 C48.35 16.67 46.7 16.34 45 16 C43.34672741 17.65327259 43.59254602 19.46719476 43.4375 21.75 C43.52895465 28.87431733 46.75860038 33.33437863 50.69824219 39.06201172 C53.23483344 42.83835482 55.5701732 46.74128029 57.9375 50.625 C58.4219458 51.4075415 58.9063916 52.19008301 59.40551758 52.99633789 C59.85822021 53.73231201 60.31092285 54.46828613 60.77734375 55.2265625 C61.18202881 55.88221191 61.58671387 56.53786133 62.00366211 57.21337891 C65.43864935 63.37295661 64.80006529 72.12079172 64 79 C62.4449099 83.61364905 60.21888839 86.12126651 56.3125 88.9375 C55.549375 89.288125 54.78625 89.63875 54 90 C53.01 90.495 53.01 90.495 52 91 C46.24616159 91.58206326 40.43108528 91.89544411 35.50390625 88.51171875 C30.57287742 83.55507418 28.70524762 77.75220252 28.6875 70.875 C28.76634333 69.24857465 28.86120076 67.62240885 29 66 C31.82931852 65.19071295 34.31084077 64.88851401 37.25 64.9375 C39.10625 64.9684375 39.10625 64.9684375 41 65 C41.13277344 65.77085937 41.26554687 66.54171875 41.40234375 67.3359375 C41.57894531 68.33882813 41.75554687 69.34171875 41.9375 70.375 C42.19853516 71.87160156 42.19853516 71.87160156 42.46484375 73.3984375 C42.87712062 75.96909656 42.87712062 75.96909656 44 78 C45.65 78 47.3 78 49 78 C51.50387674 74.24418488 51.83171916 70.33940432 51 66 C48.19955443 59.48123707 44.26305588 53.64227984 40 48 C39.67 48.33 39.34 48.66 39 49 C36.13732433 49.07325168 33.299281 49.09238205 30.4375 49.0625 C29.63119141 49.05798828 28.82488281 49.05347656 27.99414062 49.04882812 C25.99606244 49.03700518 23.99802217 49.01906914 22 49 C21.73445313 49.85851562 21.46890625 50.71703125 21.1953125 51.6015625 C19.98976199 55.02910808 18.52755614 58.14173798 16.875 61.375 C16.33617187 62.43460937 15.79734375 63.49421875 15.2421875 64.5859375 C14.83226562 65.38257813 14.42234375 66.17921875 14 67 C12.68 66.67 11.36 66.34 10 66 C9.90501221 65.39454346 9.81002441 64.78908691 9.7121582 64.1652832 C6.97149551 46.74702989 4.03250421 29.36951023 1 12 C0.76812988 12.9379541 0.53625977 13.8759082 0.29736328 14.84228516 C-0.56869513 18.34289064 -1.43793425 21.84269997 -2.30810547 25.34228516 C-2.68331444 26.85313955 -3.05767609 28.36420464 -3.43115234 29.87548828 C-3.97006795 32.05558156 -4.51208952 34.23488318 -5.0546875 36.4140625 C-5.21935516 37.08305573 -5.38402283 37.75204895 -5.55368042 38.4413147 C-6.5334774 42.36142759 -7.67282264 46.18371958 -9 50 C-9.99 50 -10.98 50 -12 50 C-12.23710693 49.37432129 -12.47421387 48.74864258 -12.71850586 48.10400391 C-13.7904212 45.27725731 -14.86394047 42.45112254 -15.9375 39.625 C-16.31068359 38.64015625 -16.68386719 37.6553125 -17.06835938 36.640625 C-17.42607422 35.69960938 -17.78378906 34.75859375 -18.15234375 33.7890625 C-18.48226318 32.91975098 -18.81218262 32.05043945 -19.15209961 31.15478516 C-19.96386752 28.99839517 -19.96386752 28.99839517 -21 27 C-21.4125 28.2375 -21.825 29.475 -22.25 30.75 C-22.65605469 31.96429688 -22.65605469 31.96429688 -23.0703125 33.203125 C-23.73790516 35.211513 -24.39854867 37.22221593 -25.0546875 39.234375 C-25.40789062 40.31203125 -25.76109375 41.3896875 -26.125 42.5 C-26.62386719 44.03140625 -26.62386719 44.03140625 -27.1328125 45.59375 C-28 48 -28 48 -29 49 C-31.86267567 49.07325168 -34.700719 49.09238205 -37.5625 49.0625 C-38.36880859 49.05798828 -39.17511719 49.05347656 -40.00585938 49.04882812 C-42.00393756 49.03700518 -44.00197783 49.01906914 -46 49 C-45.67 47.68 -45.34 46.36 -45 45 C-40.38 45 -35.76 45 -31 45 C-30.79375 43.72125 -30.5875 42.4425 -30.375 41.125 C-28.75042175 32.85876361 -25.75183285 24.9439703 -23 17 C-21.12011719 17.22485352 -21.12011719 17.22485352 -19 18 C-17.90332031 19.91772461 -17.90332031 19.91772461 -17.078125 22.40234375 C-16.77519531 23.29244141 -16.47226563 24.18253906 -16.16015625 25.09960938 C-15.85980469 26.03611328 -15.55945313 26.97261719 -15.25 27.9375 C-14.93417969 28.87013672 -14.61835937 29.80277344 -14.29296875 30.76367188 C-12 37.62768872 -12 37.62768872 -12 40 C-11.34 40 -10.68 40 -10 40 C-9.80857422 38.2528772 -9.80857422 38.2528772 -9.61328125 36.47045898 C-9.10003975 32.37975122 -8.22109531 28.46728592 -7.1875 24.47265625 C-7.01371826 23.79827011 -6.83993652 23.12388397 -6.66088867 22.42906189 C-6.29683834 21.02101303 -5.93036137 19.61358945 -5.56152344 18.20678711 C-4.9954412 16.04509133 -4.43861539 13.88115586 -3.8828125 11.71679688 C-1.13863449 1.13863449 -1.13863449 1.13863449 0 0 Z " fill="#4AA6A2" transform="translate(128,237)"/>
<path d="M0 0 C5.28 0 10.56 0 16 0 C16.49371094 2.57554687 16.98742187 5.15109375 17.49609375 7.8046875 C17.97528451 10.29359431 18.45548803 12.78230371 18.93579102 15.27099609 C19.26953445 17.00321386 19.60222152 18.73563549 19.93383789 20.46826172 C20.41015738 22.95594529 20.8902476 25.44287546 21.37109375 27.9296875 C21.51904892 28.70682098 21.66700409 29.48395447 21.81944275 30.28463745 C22.55159326 34.25568721 22.55159326 34.25568721 24 38 C24.20681396 36.88439697 24.41362793 35.76879395 24.62670898 34.61938477 C25.39246378 30.49445846 26.1633378 26.37050289 26.93579102 22.24682617 C27.26988001 20.4593281 27.60256575 18.67156718 27.93383789 16.88354492 C28.40926444 14.31879991 28.88967101 11.75503157 29.37109375 9.19140625 C29.51904892 8.3872377 29.66700409 7.58306915 29.81944275 6.75453186 C30.88612829 1.11387171 30.88612829 1.11387171 32 0 C36.95 0 41.9 0 47 0 C47 28.38 47 56.76 47 86 C43.37 86 39.74 86 36 86 C35.67 67.52 35.34 49.04 35 30 C33.48597725 41.69459831 33.48597725 41.69459831 31.97924805 53.39013672 C30.56238004 64.30532701 28.88598443 75.15620425 27 86 C25.02 86 23.04 86 21 86 C19.49592842 82.99185685 19.32165807 79.75767105 18.87890625 76.45703125 C18.77408432 75.69637863 18.66926239 74.93572601 18.56126404 74.15202332 C18.22502528 71.70595696 17.89372777 69.25924941 17.5625 66.8125 C17.34341695 65.21414909 17.1240192 63.61584128 16.90429688 62.01757812 C15.57833019 52.34827109 14.28990075 42.67425566 13 33 C12.67 50.49 12.34 67.98 12 86 C8.04 86 4.08 86 0 86 C0 57.62 0 29.24 0 0 Z " fill="#49A6A1" transform="translate(265,241)"/>
<path d="M0 0 C0.99 0.66 1.98 1.32 3 2 C3 2.66 3 3.32 3 4 C13.72231461 9.49249969 23.85496633 10.7973126 35.5625 7.25 C37.71529984 6.52023734 39.86131094 5.77013621 42 5 C44.14334667 4.24292289 46.28911268 3.49265241 48.4375 2.75 C49.82775391 2.24726563 49.82775391 2.24726563 51.24609375 1.734375 C54.26665433 0.92889218 56.88760125 0.87165366 60 1 C64.10845024 9.55927132 64.66682025 19.29058099 61.5 28.3125 C57.35758625 37.14964934 50.8155733 43.05619089 42 47 C41.05125 47.433125 40.1025 47.86625 39.125 48.3125 C30.13888273 50.2894458 20.811245 49.41837941 12.80859375 44.7109375 C5.56723098 39.57190586 -0.86794519 32.81731143 -3 24 C-3.31179122 21.12259186 -3.40823928 18.26807561 -3.4375 15.375 C-3.44765137 14.65844238 -3.45780273 13.94188477 -3.46826172 13.20361328 C-3.38528584 8.13507262 -2.24663817 4.54095037 0 0 Z " fill="#4FC6C2" transform="translate(328,250)"/>
<path d="M0 0 C4.95 0 9.9 0 15 0 C15 8.58 15 17.16 15 26 C21.93 26 28.86 26 36 26 C36 17.42 36 8.84 36 0 C40.95 0 45.9 0 51 0 C51 21.45 51 42.9 51 65 C46.05 65 41.1 65 36 65 C36 56.42 36 47.84 36 39 C29.07 39 22.14 39 15 39 C15 47.58 15 56.16 15 65 C10.05 65 5.1 65 0 65 C0 43.55 0 22.1 0 0 Z " fill="#49A6A1" transform="translate(193,140)"/>
<path d="M0 0 C-1.41292095 4.8274799 -3.42974154 8.7162359 -6 13 C-6.83789062 12.67902344 -7.67578125 12.35804688 -8.5390625 12.02734375 C-15.16563683 10.06031322 -22.99699354 9.65968095 -29.61328125 11.875 C-34.16332168 14.47991957 -37.43438478 17.95089093 -39 23 C-40.06315118 29.77758875 -38.9997469 35.39517668 -35 41 C-29.27381016 46.58303509 -23.89684441 46.21120126 -16.21875 46.16796875 C-12.46372535 45.97201479 -9.50666093 45.30480407 -6 44 C-4.99491199 45.78881736 -3.99607264 47.58114696 -3 49.375 C-2.443125 50.37273437 -1.88625 51.37046875 -1.3125 52.3984375 C0 55 0 55 0 57 C-1.20268681 57.65628849 -2.41252554 58.29947505 -3.625 58.9375 C-4.63433594 59.47697266 -4.63433594 59.47697266 -5.6640625 60.02734375 C-13.80678336 63.41787468 -25.07255229 63.60544801 -33.46484375 60.87109375 C-43.71304784 55.92145672 -50.07786638 49.89950856 -55.109375 39.765625 C-57.58979352 32.06327275 -57.35654768 21.62349145 -53.8125 14.3125 C-52.91899407 12.84724928 -51.98527594 11.40518462 -51 10 C-50.29875 8.948125 -49.5975 7.89625 -48.875 6.8125 C-36.14455897 -7.37284857 -16.18116395 -8.40105578 0 0 Z " fill="#4AA7A2" transform="translate(304,144)"/>
<path d="M0 0 C9.57 0 19.14 0 29 0 C29 4.29 29 8.58 29 13 C23.39 13 17.78 13 12 13 C12 20.59 12 28.18 12 36 C15.96 36 19.92 36 24 36 C24 40.29 24 44.58 24 49 C20.04 49 16.08 49 12 49 C12 56.92 12 64.84 12 73 C17.61 73 23.22 73 29 73 C29 77.29 29 81.58 29 86 C19.43 86 9.86 86 0 86 C0 57.62 0 29.24 0 0 Z " fill="#47A5A0" transform="translate(232,241)"/>
<path d="M0 0 C4.95 0 9.9 0 15 0 C15 21.45 15 42.9 15 65 C10.05 65 5.1 65 0 65 C0 43.55 0 22.1 0 0 Z " fill="#4BA7A2" transform="translate(307,140)"/>
<path d="M0 0 C0.99 0.33 1.98 0.66 3 1 C3.82177734 3.41088867 3.82177734 3.41088867 4.4609375 6.73046875 C4.70811523 8.00067871 4.95529297 9.27088867 5.20996094 10.57958984 C5.47643312 12.05249781 5.73958915 13.52600832 6 15 C6.14199829 15.80294495 6.28399658 16.60588989 6.43029785 17.4331665 C7.69779888 24.67347536 8.89936478 31.92465115 10.09863281 39.17651367 C10.55462029 41.92683566 11.01537082 44.67632796 11.4765625 47.42578125 C11.61510651 48.27352615 11.75365051 49.12127106 11.89639282 49.9947052 C12.2335689 53.81368367 12.2335689 53.81368367 14 57 C15.98 53.04 17.96 49.08 20 45 C26.27 45 32.54 45 39 45 C39 46.32 39 47.64 39 49 C33.39 49 27.78 49 22 49 C21.01 51.97 21.01 51.97 20 55 C18.9940752 57.14215073 17.95205611 59.2677163 16.875 61.375 C16.33617187 62.43460937 15.79734375 63.49421875 15.2421875 64.5859375 C14.83226562 65.38257813 14.42234375 66.17921875 14 67 C12.68 66.67 11.36 66.34 10 66 C9.90501221 65.39454346 9.81002441 64.78908691 9.7121582 64.1652832 C6.97149551 46.74702989 4.03250421 29.36951023 1 12 C0.76812988 12.9379541 0.53625977 13.8759082 0.29736328 14.84228516 C-0.56869513 18.34289064 -1.43793425 21.84269997 -2.30810547 25.34228516 C-2.68331444 26.85313955 -3.05767609 28.36420464 -3.43115234 29.87548828 C-3.97006795 32.05558156 -4.51208952 34.23488318 -5.0546875 36.4140625 C-5.21935516 37.08305573 -5.38402283 37.75204895 -5.55368042 38.4413147 C-6.5334774 42.36142759 -7.67282264 46.18371958 -9 50 C-9.99 50 -10.98 50 -12 50 C-12.23710693 49.37432129 -12.47421387 48.74864258 -12.71850586 48.10400391 C-13.7904212 45.27725731 -14.86394047 42.45112254 -15.9375 39.625 C-16.31068359 38.64015625 -16.68386719 37.6553125 -17.06835938 36.640625 C-17.42607422 35.69960938 -17.78378906 34.75859375 -18.15234375 33.7890625 C-18.48226318 32.91975098 -18.81218262 32.05043945 -19.15209961 31.15478516 C-19.96386752 28.99839517 -19.96386752 28.99839517 -21 27 C-21.4125 28.2375 -21.825 29.475 -22.25 30.75 C-22.65605469 31.96429688 -22.65605469 31.96429688 -23.0703125 33.203125 C-23.73790516 35.211513 -24.39854867 37.22221593 -25.0546875 39.234375 C-25.40789062 40.31203125 -25.76109375 41.3896875 -26.125 42.5 C-26.62386719 44.03140625 -26.62386719 44.03140625 -27.1328125 45.59375 C-28 48 -28 48 -29 49 C-31.86267567 49.07325168 -34.700719 49.09238205 -37.5625 49.0625 C-38.36880859 49.05798828 -39.17511719 49.05347656 -40.00585938 49.04882812 C-42.00393756 49.03700518 -44.00197783 49.01906914 -46 49 C-45.67 47.68 -45.34 46.36 -45 45 C-40.38 45 -35.76 45 -31 45 C-30.79375 43.72125 -30.5875 42.4425 -30.375 41.125 C-28.75042175 32.85876361 -25.75183285 24.9439703 -23 17 C-21.12011719 17.22485352 -21.12011719 17.22485352 -19 18 C-17.90332031 19.91772461 -17.90332031 19.91772461 -17.078125 22.40234375 C-16.77519531 23.29244141 -16.47226563 24.18253906 -16.16015625 25.09960938 C-15.85980469 26.03611328 -15.55945313 26.97261719 -15.25 27.9375 C-14.93417969 28.87013672 -14.61835937 29.80277344 -14.29296875 30.76367188 C-12 37.62768872 -12 37.62768872 -12 40 C-11.34 40 -10.68 40 -10 40 C-9.80857422 38.2528772 -9.80857422 38.2528772 -9.61328125 36.47045898 C-9.10003975 32.37975122 -8.22109531 28.46728592 -7.1875 24.47265625 C-7.01371826 23.79827011 -6.83993652 23.12388397 -6.66088867 22.42906189 C-6.29683834 21.02101303 -5.93036137 19.61358945 -5.56152344 18.20678711 C-4.9954412 16.04509133 -4.43861539 13.88115586 -3.8828125 11.71679688 C-1.13863449 1.13863449 -1.13863449 1.13863449 0 0 Z " fill="#56ADA8" transform="translate(128,237)"/>
<path d="M0 0 C0.33 0 0.66 0 1 0 C1 19.14 1 38.28 1 58 C0.67 58 0.34 58 0 58 C-0.33 43.81 -0.66 29.62 -1 15 C-1.33 15 -1.66 15 -2 15 C-1.85930804 12.87465341 -1.71229079 10.74972471 -1.5625 8.625 C-1.48128906 7.44164062 -1.40007812 6.25828125 -1.31640625 5.0390625 C-1 2 -1 2 0 0 Z " fill="#C0DCDB" transform="translate(300,269)"/>
<path d="M0 0 C3.125 0.375 3.125 0.375 6 1 C7.32841008 6.43440487 7.32841008 6.43440487 5.875 8.9375 C4 10 4 10 1.375 9.75 C-1 9 -1 9 -2 8 C-2.1875 5.0625 -2.1875 5.0625 -2 2 C-1.34 1.34 -0.68 0.68 0 0 Z " fill="#4FC5C1" transform="translate(367,241)"/>
<path d="M0 0 C0.66 0 1.32 0 2 0 C2 0.66 2 1.32 2 2 C2.66 2 3.32 2 4 2 C4 3.65 4 5.3 4 7 C3.34 6.01 2.68 5.02 2 4 C1.34 8.95 0.68 13.9 0 19 C-0.66 19 -1.32 19 -2 19 C-1.85870713 16.58299013 -1.71213513 14.16649571 -1.5625 11.75 C-1.52318359 11.06808594 -1.48386719 10.38617188 -1.44335938 9.68359375 C-1.23333528 6.35551959 -0.98065998 3.19744598 0 0 Z " fill="#52BBB6" transform="translate(373,204)"/>
<path d="M0 0 C2.0625 0.4375 2.0625 0.4375 4 1 C3.67 2.65 3.34 4.3 3 6 C1.68 5.67 0.36 5.34 -1 5 C-1 1 -1 1 0 0 Z " fill="#4EC2BE" transform="translate(350,236)"/>
</svg>
